<svg width="24" height="24" viewBox="0 0 24 24" fill="none" xmlns="http://www.w3.org/2000/svg">
<path d="M12.4456 24C10.5004 24 8.77138 23.7345 7.25845 23.2034C5.7517 22.6785 4.4796 21.9035 3.44217 20.8784C2.40473 19.8595 1.61739 18.6152 1.08014 17.1455C0.5429 15.6758 0.27119 13.9961 0.265015 12.1065C0.27119 10.2601 0.545987 8.59591 1.08941 7.11386C1.63283 5.62563 2.42634 4.35353 3.46995 3.29757C4.51357 2.23543 5.78875 1.4203 7.2955 0.852182C8.80226 0.284061 10.5159 0 12.4364 0C14.2457 0 15.8482 0.274797 17.2438 0.824392C18.6456 1.37399 19.8281 2.13971 20.7915 3.12157C21.761 4.09726 22.4927 5.23968 22.9867 6.54882C23.4869 7.85179 23.737 9.26592 23.737 10.7912C23.737 11.8472 23.6568 12.8475 23.4962 13.7924C23.3356 14.731 23.0608 15.5646 22.6718 16.2933C22.2889 17.022 21.7671 17.6025 21.1064 18.0347C20.4456 18.4608 19.6182 18.6924 18.6239 18.7294C18.0003 18.7603 17.4537 18.7017 16.9844 18.5535C16.5151 18.4052 16.1353 18.1737 15.8451 17.8587C15.561 17.5376 15.382 17.1455 15.3079 16.6824H15.1967C15.0547 17.0529 14.786 17.3925 14.3908 17.7013C14.0018 18.0039 13.5201 18.2416 12.9458 18.4145C12.3715 18.5812 11.7324 18.6492 11.0284 18.6183C10.275 18.5812 9.57725 18.4083 8.93503 18.0996C8.29898 17.7846 7.74321 17.3462 7.26772 16.7843C6.7984 16.2161 6.43406 15.5307 6.1747 14.7279C5.91534 13.9251 5.78566 13.0143 5.78566 11.9954C5.78566 11.0012 5.92769 10.1243 6.21175 9.36472C6.49581 8.60517 6.87559 7.95677 7.35108 7.41953C7.83275 6.88228 8.37617 6.46237 8.98134 6.15978C9.58651 5.85102 10.2102 5.65342 10.8524 5.56696C11.5194 5.47433 12.1461 5.4836 12.7328 5.59475C13.3194 5.70591 13.8073 5.87572 14.1963 6.10421C14.5915 6.33269 14.8385 6.58279 14.9373 6.8545H15.067V5.81706H17.6514V14.6353C17.6575 15.0984 17.7687 15.472 17.9848 15.7561C18.2071 16.0401 18.5159 16.1822 18.9111 16.1822C19.4051 16.1822 19.8034 15.9876 20.106 15.5986C20.4148 15.2034 20.6371 14.5982 20.7729 13.7831C20.915 12.9618 20.9829 11.912 20.9767 10.6337C20.9829 9.58394 20.8439 8.63296 20.5599 7.78078C20.282 6.92242 19.8868 6.16905 19.3742 5.52065C18.8617 4.87225 18.2473 4.33192 17.5309 3.89965C16.8208 3.46121 16.0304 3.13084 15.1596 2.90853C14.2889 2.68622 13.3596 2.57507 12.3715 2.57507C10.8586 2.57507 9.52785 2.80664 8.37926 3.26978C7.23066 3.72675 6.26733 4.37823 5.48925 5.22424C4.71735 6.07024 4.13379 7.07372 3.73858 8.23466C3.34954 9.38943 3.15502 10.6677 3.15502 12.0695C3.15502 13.57 3.3588 14.9008 3.76637 16.0618C4.18011 17.2165 4.78528 18.1891 5.58188 18.9795C6.37848 19.77 7.36343 20.369 8.53672 20.7765C9.71619 21.1841 11.0717 21.3879 12.6031 21.3879C13.3071 21.3879 13.9956 21.3323 14.6687 21.2212C15.3418 21.11 15.947 20.9803 16.4842 20.8321C17.0215 20.6839 17.4352 20.5542 17.7255 20.4431L18.5128 22.7958C18.1299 22.9934 17.6112 23.1849 16.9566 23.3701C16.3082 23.5554 15.5919 23.7067 14.8077 23.824C14.0296 23.9413 13.2422 24 12.4456 24ZM11.7972 15.9599C12.5815 15.9599 13.2083 15.8086 13.6776 15.506C14.1469 15.1972 14.4835 14.7403 14.6872 14.1351C14.891 13.5299 14.9898 12.7765 14.9837 11.875C14.9837 11.0351 14.8787 10.3466 14.6687 9.80934C14.4588 9.2721 14.1222 8.87379 13.6591 8.61443C13.1959 8.35508 12.5815 8.2254 11.8158 8.2254C11.1241 8.2254 10.5344 8.38286 10.0466 8.6978C9.5649 9.01274 9.19439 9.44809 8.93503 10.0039C8.68184 10.5535 8.55525 11.1802 8.55525 11.8842C8.55525 12.5882 8.65714 13.252 8.86092 13.8757C9.07088 14.4932 9.41052 14.9965 9.87984 15.3856C10.3553 15.7684 10.9945 15.9599 11.7972 15.9599Z" fill="#D9D9D9"/>
</svg>
