<svg width="24" height="24" viewBox="0 0 24 24" fill="none" xmlns="http://www.w3.org/2000/svg">
<path d="M18.2069 4.42763C18.9179 4.42763 19.4943 5.004 19.4943 5.71499V8.93338H22.7126C23.4236 8.93338 24 9.50975 24 10.2207C24 10.9317 23.4236 11.5081 22.7126 11.5081H19.4943V14.7265C19.4943 15.4375 18.9179 16.0138 18.2069 16.0138C17.4959 16.0138 16.9195 15.4375 16.9195 14.7265V11.5081H13.7011C12.9902 11.5081 12.4138 10.9317 12.4138 10.2207C12.4138 9.50975 12.9902 8.93338 13.7011 8.93338H16.9195V5.71499C16.9195 5.004 17.4959 4.42763 18.2069 4.42763Z" fill="#D9D9D9"/>
<path d="M5.01643 12.8514C5.54476 12.8515 6.05046 13.041 6.5035 13.3129C7.50513 13.914 8.67784 14.2601 9.93103 14.2601C10.601 14.2601 11.2477 14.1602 11.8578 13.9764C12.4141 14.25 13.0394 14.4047 13.7012 14.4047H14.0229V14.7264C14.0229 16.8301 15.5757 18.57 17.5975 18.8651C15.4126 20.3537 12.7743 21.2267 9.93103 21.2267C6.63179 21.2267 3.60635 20.0546 1.24784 18.1046C0.400764 17.4042 2.92996e-05 16.3226 0 15.2234C0 13.9138 1.0616 12.8516 2.37123 12.8514H5.01643Z" fill="#D9D9D9"/>
<path d="M9.93103 2.77246C11.6877 2.77246 13.2241 3.71312 14.0657 5.11783C14.0378 5.31292 14.0229 5.51228 14.0229 5.71508V6.03674H13.7012C11.3905 6.03674 9.51724 7.91003 9.51724 10.2207C9.51724 11.0198 9.74199 11.7662 10.1307 12.4012C10.0644 12.4039 9.99793 12.4069 9.93103 12.4069C7.27063 12.4069 5.11359 10.2504 5.11342 7.59008C5.11342 4.92956 7.27052 2.77246 9.93103 2.77246Z" fill="#D9D9D9"/>
</svg>
