<svg width="24" height="24" viewBox="0 0 24 24" fill="none" xmlns="http://www.w3.org/2000/svg">
<path fill-rule="evenodd" clip-rule="evenodd" d="M12 0C14.2302 0 15.3454 -4.26888e-05 16.2727 0.184375C20.0809 0.941879 23.0581 3.91911 23.8156 7.72734C24 8.65465 24 9.76983 24 12C24 14.2302 24 15.3454 23.8156 16.2727C23.0581 20.0809 20.0809 23.0581 16.2727 23.8156C15.3454 24 14.2302 24 12 24C9.76983 24 8.65465 24 7.72734 23.8156C3.91911 23.0581 0.941879 20.0809 0.184375 16.2727C-4.26888e-05 15.3454 0 14.2302 0 12C0 9.76983 -4.26888e-05 8.65465 0.184375 7.72734C0.941879 3.91911 3.91911 0.941879 7.72734 0.184375C8.65465 -4.26888e-05 9.76983 0 12 0ZM12 15.7234C11.3372 15.7234 10.7688 15.9308 10.2945 16.3461C9.82599 16.7615 9.5943 17.2615 9.6 17.8461C9.59429 18.4461 9.82603 18.9561 10.2945 19.3766C10.7688 19.7919 11.3372 20 12 20C12.4228 20 12.8143 19.9053 13.1742 19.7156C13.5342 19.5208 13.8256 19.2614 14.0484 18.9383C14.277 18.6101 14.3943 18.2461 14.4 17.8461C14.3943 17.2615 14.1482 16.7615 13.6625 16.3461C13.1826 15.9308 12.6285 15.7234 12 15.7234ZM9.6 4L10.0461 14.8305H13.9539L14.4 4H9.6Z" fill="#D9D9D9"/>
</svg>
