<svg width="24" height="24" viewBox="0 0 24 24" fill="none" xmlns="http://www.w3.org/2000/svg">
<path d="M8.13837 4.34227C8.81453 3.66369 9.91053 3.66369 10.5867 4.34227L16.9929 10.7715C17.669 11.45 17.669 12.55 16.9929 13.2285L10.5867 19.6577C9.91053 20.3363 8.81453 20.3363 8.13837 19.6577C7.46222 18.9791 7.46222 17.8792 8.13837 17.2006L11.589 13.7376H1.7314C0.775176 13.7376 0 12.9597 0 12C0 11.0403 0.775176 10.2624 1.7314 10.2624H11.589L8.13837 6.79937C7.46222 6.12079 7.46222 5.02085 8.13837 4.34227Z" fill="#D9D9D9"/>
<path d="M21.3333 0C22.8061 1.33735e-05 24 1.19392 24 2.66667V21.3333C24 22.8061 22.8061 24 21.3333 24H12.2814C11.7354 24 11.2279 23.8357 10.8052 23.5542C11.0262 23.439 11.2337 23.2884 11.4191 23.1021L20.6257 13.8506C21.5974 12.8741 21.5973 11.2914 20.6257 10.3149L11.4191 1.06331C11.1954 0.838507 10.9396 0.665563 10.6667 0.544271C11.1148 0.202761 11.6745 6.45433e-06 12.2814 0H21.3333Z" fill="#D9D9D9"/>
</svg>
