<svg width="24" height="24" viewBox="0 0 24 24" fill="none" xmlns="http://www.w3.org/2000/svg">
<path d="M21.6872 9.49162C21.6873 8.82894 22.205 8.29167 22.8436 8.29165C23.4823 8.29165 24 8.82892 24 9.49162C24 13.4374 20.9176 16.636 17.1152 16.636C15.8862 16.636 14.731 16.3001 13.7311 15.7134L13.8501 16.3829C13.9655 17.0347 13.5492 17.6608 12.921 17.7805C12.2931 17.9001 11.6905 17.4688 11.5749 16.8173L11.0028 13.5837C10.853 12.7378 11.3724 11.911 12.1787 11.7119L15.2602 10.951C15.8814 10.7975 16.5051 11.1961 16.6529 11.8408C16.8006 12.4854 16.4166 13.1319 15.7954 13.2853L14.7407 13.5455C15.4326 13.9831 16.244 14.2361 17.1152 14.2361C19.6403 14.2361 21.6872 12.1119 21.6872 9.49162ZM10.2304 9.49162C10.2304 5.54591 13.3128 2.34723 17.1152 2.34722C18.2785 2.34722 19.3762 2.6473 20.3381 3.17689L20.2041 2.41753C20.0887 1.76571 20.505 1.13968 21.1331 1.0199C21.7611 0.900369 22.3637 1.33163 22.4792 1.98316L23.0514 5.2167C23.2012 6.06266 22.6818 6.8894 21.8755 7.08854L18.794 7.84947C18.1727 8.0029 17.5491 7.60436 17.4013 6.95964C17.2536 6.31501 17.6376 5.66855 18.2588 5.51513L19.2179 5.27764C18.5888 4.93876 17.8745 4.74718 17.1152 4.74718C14.5901 4.74719 12.5431 6.87137 12.5431 9.49162C12.5431 10.1544 12.0254 10.6916 11.3867 10.6916C10.7481 10.6916 10.2304 10.1544 10.2304 9.49162Z" fill="#D9D9D9"/>
<path d="M8.35589 3.80034C8.64711 3.80035 8.93325 3.8228 9.21264 3.86675C8.72079 4.60953 8.32258 5.42446 8.03819 6.29405C6.37437 6.45982 5.0736 7.91385 5.07346 9.68383V10.6135H7.68736C7.84072 11.1572 8.10176 11.6532 8.44548 12.0744C8.28796 12.6426 8.23798 13.2503 8.31599 13.8666C7.18074 13.8886 6.26685 14.8489 6.26673 16.0322C6.26673 16.9565 6.82463 17.7454 7.60982 18.0571V19.5938C7.60992 20.0213 7.94393 20.368 8.35589 20.368C8.76781 20.3679 9.10187 20.0212 9.10197 19.5938V18.0571C9.10785 18.0548 9.11343 18.0517 9.11929 18.0493C9.77477 19.8049 11.5585 20.8873 13.4083 20.5352L13.409 20.5344C14.2665 20.3708 15.0052 19.9238 15.5524 19.304C15.932 19.3689 16.3191 19.4097 16.7118 19.4266V20.2133C16.7116 21.7524 15.5088 23 14.0256 23H2.68542C1.20239 22.9998 0.000197093 21.7523 0 20.2133V13.4002C1.53805e-07 11.8611 1.20227 10.6137 2.68542 10.6135V9.68383C2.68556 6.43444 5.22454 3.80034 8.35589 3.80034Z" fill="#D9D9D9"/>
<path d="M16.7118 14.2142V14.2158C16.6405 14.2093 16.5698 14.2014 16.4995 14.1916C16.5697 14.2014 16.6406 14.2077 16.7118 14.2142Z" fill="#D9D9D9"/>
</svg>
