<svg width="268" height="268" viewBox="0 0 268 268" fill="none" xmlns="http://www.w3.org/2000/svg">
<circle cx="134" cy="80" r="65" fill="#D9D9D9"/>
<path d="M67.6816 151C74.8138 151 81.6404 153.554 87.7559 157.225C101.271 165.336 117.091 170 134 170C150.909 170 166.729 165.336 180.244 157.225C186.36 153.554 193.186 151 200.318 151H236C253.673 151 268 165.327 268 183C268 197.831 262.598 212.423 251.167 221.874C219.343 248.187 178.519 264 134 264C89.4809 264 48.6567 248.187 16.8326 221.874C5.4025 212.423 0 197.831 0 183C0 165.327 14.3269 151 32 151H67.6816Z" fill="#D9D9D9"/>
</svg>
