<svg width="78" height="78" viewBox="0 0 78 78" fill="none" xmlns="http://www.w3.org/2000/svg">
<path d="M39.0011 12C46.3882 12 53.8856 15.6779 60.0353 19.7539C66.2998 23.9061 71.7589 28.8758 75.1828 32.2471C78.9979 36.0036 78.9226 42.0487 75.0744 45.7295C71.5697 49.0816 65.9868 54.0528 59.7043 58.21C53.5649 62.2723 46.1116 66 39.0011 66C31.8907 65.9997 24.4372 62.2723 18.298 58.21C12.0154 54.0527 6.43239 49.0815 2.92789 45.7295C-0.919674 42.0488 -0.995015 36.0035 2.81949 32.2471C6.24318 28.876 11.7025 23.9062 17.9669 19.7539C24.1165 15.6779 31.6141 12.0003 39.0011 12ZM39.0002 27C32.3729 27.0002 27.0002 32.3727 27.0002 39C27.0002 45.6273 32.3729 50.9998 39.0002 51C45.6276 51 51.0002 45.6274 51.0002 39C51.0002 32.3726 45.6276 27 39.0002 27Z" fill="#D9D9D9"/>
</svg>
