<svg width="24" height="24" viewBox="0 0 24 24" fill="none" xmlns="http://www.w3.org/2000/svg">
<path d="M2.90909 9.33338V5.77777C2.90909 5.28889 3.08711 4.87037 3.44319 4.52223C3.79924 4.17408 4.22727 4 4.72727 4H19.2727C19.7727 4 20.2007 4.17408 20.5569 4.52223C20.9129 4.87037 21.0909 5.28889 21.0909 5.77777V9.33338H19.2727V5.77777H4.72727V9.33338H2.90909ZM4.72727 17.3334C4.22727 17.3334 3.79924 17.1593 3.44319 16.8111C3.08711 16.463 2.90909 16.0445 2.90909 15.5555V11.1111H4.72727V15.5555H19.2727V11.1111H21.0909V15.5555C21.0909 16.0445 20.9129 16.463 20.5569 16.8111C20.2007 17.1593 19.7727 17.3334 19.2727 17.3334H4.72727ZM2 20V18.2223H22V20H2ZM2.90909 11.1111V9.33338H8.36364C8.5303 9.33338 8.6894 9.37775 8.84091 9.46662C8.99243 9.55549 9.10606 9.67404 9.18186 9.82225L10.25 11.8889L13.0454 7.11111C13.1211 6.97778 13.2273 6.87037 13.3636 6.78889C13.5 6.7074 13.6516 6.66666 13.8181 6.66666C13.9849 6.66666 14.144 6.7074 14.2954 6.78889C14.447 6.87037 14.5606 6.9926 14.6364 7.15555L15.75 9.33338H21.0909V11.1111H15.1819C15.0151 11.1111 14.856 11.0704 14.7046 10.9889C14.553 10.9073 14.4394 10.7852 14.3636 10.6223L13.7727 9.44451L10.9773 14.2223C10.9016 14.3703 10.7879 14.4815 10.6364 14.5555C10.4849 14.6297 10.3257 14.6666 10.1591 14.6666C9.99243 14.6666 9.83714 14.6223 9.69314 14.5334C9.54929 14.4445 9.43943 14.326 9.36357 14.1777L7.79546 11.1111H2.90909Z" fill="white"/>
</svg>
