<svg width="24" height="24" viewBox="0 0 24 24" fill="none" xmlns="http://www.w3.org/2000/svg">
<path d="M4.49272 22C3.80313 22 3.21528 21.7545 2.72917 21.2635C2.24305 20.7725 2 20.1823 2 19.4927C2 18.8032 2.24548 18.2153 2.73647 17.7292C3.22743 17.243 3.8177 17 4.50728 17C5.19687 17 5.78472 17.2455 6.27083 17.7365C6.75695 18.2275 7 18.8177 7 19.5073C7 20.1968 6.75452 20.7847 6.26355 21.2708C5.77257 21.757 5.1823 22 4.49272 22ZM11.9927 22C11.3031 22 10.7153 21.7545 10.2292 21.2635C9.74305 20.7725 9.5 20.1823 9.5 19.4927C9.5 18.8032 9.74548 18.2153 10.2364 17.7292C10.7274 17.243 11.3177 17 12.0073 17C12.6968 17 13.2847 17.2455 13.7708 17.7365C14.257 18.2275 14.5 18.8177 14.5 19.5073C14.5 20.1968 14.2545 20.7847 13.7635 21.2708C13.2725 21.757 12.6823 22 11.9927 22ZM19.4927 22C18.8032 22 18.2153 21.7545 17.7292 21.2635C17.243 20.7725 17 20.1823 17 19.4927C17 18.8032 17.2455 18.2153 17.7365 17.7292C18.2275 17.243 18.8177 17 19.5073 17C20.1968 17 20.7847 17.2455 21.2708 17.7365C21.757 18.2275 22 18.8177 22 19.5073C22 20.1968 21.7545 20.7847 21.2635 21.2708C20.7725 21.757 20.1823 22 19.4927 22ZM4.49272 14.5C3.80313 14.5 3.21528 14.2545 2.72917 13.7635C2.24305 13.2725 2 12.6823 2 11.9927C2 11.3031 2.24548 10.7153 2.73647 10.2292C3.22743 9.74305 3.8177 9.5 4.50728 9.5C5.19687 9.5 5.78472 9.74548 6.27083 10.2365C6.75695 10.7274 7 11.3177 7 12.0073C7 12.6968 6.75452 13.2847 6.26355 13.7708C5.77257 14.257 5.1823 14.5 4.49272 14.5ZM11.9927 14.5C11.3031 14.5 10.7153 14.2545 10.2292 13.7635C9.74305 13.2725 9.5 12.6823 9.5 11.9927C9.5 11.3031 9.74548 10.7153 10.2364 10.2292C10.7274 9.74305 11.3177 9.5 12.0073 9.5C12.6968 9.5 13.2847 9.74548 13.7708 10.2365C14.257 10.7274 14.5 11.3177 14.5 12.0073C14.5 12.6968 14.2545 13.2847 13.7635 13.7708C13.2725 14.257 12.6823 14.5 11.9927 14.5ZM19.4927 14.5C18.8032 14.5 18.2153 14.2545 17.7292 13.7635C17.243 13.2725 17 12.6823 17 11.9927C17 11.3031 17.2455 10.7153 17.7365 10.2292C18.2275 9.74305 18.8177 9.5 19.5073 9.5C20.1968 9.5 20.7847 9.74548 21.2708 10.2365C21.757 10.7274 22 11.3177 22 12.0073C22 12.6968 21.7545 13.2847 21.2635 13.7708C20.7725 14.257 20.1823 14.5 19.4927 14.5ZM4.49272 7C3.80313 7 3.21528 6.75452 2.72917 6.26353C2.24305 5.77257 2 5.18228 2 4.4927C2 3.80312 2.24548 3.21528 2.73647 2.72917C3.22743 2.24305 3.8177 2 4.50728 2C5.19687 2 5.78472 2.24548 6.27083 2.73647C6.75695 3.22743 7 3.81772 7 4.5073C7 5.19688 6.75452 5.78472 6.26355 6.27083C5.77257 6.75695 5.1823 7 4.49272 7ZM11.9927 7C11.3031 7 10.7153 6.75452 10.2292 6.26353C9.74305 5.77257 9.5 5.18228 9.5 4.4927C9.5 3.80312 9.74548 3.21528 10.2364 2.72917C10.7274 2.24305 11.3177 2 12.0073 2C12.6968 2 13.2847 2.24548 13.7708 2.73647C14.257 3.22743 14.5 3.81772 14.5 4.5073C14.5 5.19688 14.2545 5.78472 13.7635 6.27083C13.2725 6.75695 12.6823 7 11.9927 7ZM19.4927 7C18.8032 7 18.2153 6.75452 17.7292 6.26353C17.243 5.77257 17 5.18228 17 4.4927C17 3.80312 17.2455 3.21528 17.7365 2.72917C18.2275 2.24305 18.8177 2 19.5073 2C20.1968 2 20.7847 2.24548 21.2708 2.73647C21.757 3.22743 22 3.81772 22 4.5073C22 5.19688 21.7545 5.78472 21.2635 6.27083C20.7725 6.75695 20.1823 7 19.4927 7Z" fill="#CAF0E5"/>
</svg>
