<svg width="24" height="24" viewBox="0 0 24 24" fill="none" xmlns="http://www.w3.org/2000/svg">
<path d="M11.8829 18.9511C10.0878 18.8577 8.57319 18.1658 7.33903 16.8757C6.10488 15.5854 5.48781 14.0334 5.48781 12.2196C5.48781 10.3497 6.14227 8.76017 7.45122 7.45122C8.7602 6.14227 10.3497 5.48781 12.2196 5.48781C14.0334 5.48781 15.5854 6.10488 16.8757 7.33903C18.1658 8.57317 18.8577 10.0878 18.9511 11.8829L16.5951 11.1817C16.352 10.1719 15.8285 9.34458 15.0243 8.69939C14.2204 8.05428 13.2854 7.73171 12.2196 7.73171C10.9854 7.73171 9.92878 8.17113 9.05 9.05C8.17122 9.92878 7.73171 10.9854 7.73171 12.2196C7.73171 13.2854 8.05428 14.2204 8.69934 15.0243C9.34458 15.8285 10.1719 16.352 11.1817 16.5951L11.8829 18.9511ZM13.2293 23.3829C13.061 23.4204 12.8928 23.439 12.7243 23.439H12.2196C10.6674 23.439 9.20888 23.1446 7.8439 22.5554C6.47887 21.9664 5.29146 21.1671 4.28171 20.1572C3.27196 19.1475 2.47257 17.9602 1.88354 16.5951C1.29451 15.2301 1 13.7715 1 12.2196C1 10.6674 1.29451 9.20888 1.88354 7.8439C2.47257 6.47887 3.27196 5.29146 4.28171 4.28171C5.29146 3.27196 6.47887 2.47257 7.8439 1.88354C9.20888 1.29451 10.6674 1 12.2196 1C13.7715 1 15.2301 1.29451 16.5951 1.88354C17.9602 2.47257 19.1475 3.27196 20.1572 4.28171C21.1671 5.29146 21.9664 6.47887 22.5554 7.8439C23.1446 9.20888 23.439 10.6674 23.439 12.2196V12.7243C23.439 12.8928 23.4204 13.061 23.3829 13.2293L21.1951 12.5561V12.2196C21.1951 9.71382 20.3257 7.59146 18.5865 5.85243C16.8475 4.11342 14.7252 3.2439 12.2196 3.2439C9.71382 3.2439 7.59146 4.11342 5.85243 5.85243C4.11342 7.59146 3.2439 9.71382 3.2439 12.2196C3.2439 14.7252 4.11342 16.8475 5.85243 18.5865C7.59146 20.3257 9.71382 21.1951 12.2196 21.1951H12.5561L13.2293 23.3829ZM21.7842 24L16.9878 19.2036L15.5854 23.439L12.2196 12.2196L23.439 15.5854L19.2036 16.9878L24 21.7842L21.7842 24Z" fill="white"/>
</svg>
