<svg width="23" height="24" viewBox="0 0 23 24" fill="none" xmlns="http://www.w3.org/2000/svg">
<path d="M18.0836 5.24656C16.8666 4.66846 15.5734 4.24802 14.2144 4.00102C14.1889 4.00102 14.1637 4.00102 14.1536 4.03255C13.9862 4.34261 13.7986 4.74203 13.6717 5.05736C12.2011 4.83137 10.7558 4.83137 9.32581 5.05736C9.19391 4.73152 9.00628 4.33736 8.81864 4.03255C8.80343 4.01153 8.78316 3.99577 8.7578 4.00102C7.59143 4.24277 6.10052 4.68422 4.90372 5.24656C4.89358 5.24656 4.88344 5.25706 4.87837 5.26757C2.3935 9.10405 1.73425 12.7828 2.08924 16.4617C2.08924 16.4774 2.09938 16.4984 2.11458 16.5142C3.73736 17.7544 5.30942 18.5113 6.86119 19C6.88655 19 6.91189 19 6.92711 18.979C7.29223 18.4639 7.61679 17.9175 7.90077 17.3393C7.91598 17.3077 7.90077 17.2657 7.86527 17.2552C7.35816 17.045 6.85105 16.8032 6.37942 16.5194C6.34392 16.4984 6.33885 16.4405 6.37942 16.4143C6.48086 16.3355 6.58227 16.2566 6.67356 16.1779C6.68877 16.162 6.71412 16.162 6.7344 16.1672C9.84817 17.6389 13.2255 17.6389 16.2681 16.1672C16.2884 16.1567 16.3139 16.162 16.3291 16.1726C16.4254 16.2566 16.5217 16.3355 16.6231 16.4143C16.6586 16.4405 16.6535 16.4984 16.6231 16.5194C16.1515 16.8085 15.6597 17.045 15.1373 17.2552C15.1018 17.2709 15.0866 17.3077 15.1069 17.3446C15.3909 17.9227 15.7205 18.4639 16.0704 18.9737C16.0856 18.9947 16.111 19.0052 16.1363 18.9947C17.6881 18.4955 19.2651 17.7439 20.893 16.5089C20.9082 16.4984 20.9184 16.4827 20.9184 16.4563C21.3139 12.2047 20.254 8.5207 18.1089 5.26232C18.1089 5.25181 18.0937 5.24129 18.0836 5.24129V5.24656ZM8.34703 14.2333C7.38352 14.2333 6.62284 13.3399 6.62284 12.2362C6.62284 11.1326 7.38352 10.2392 8.34703 10.2392C9.31061 10.2392 10.0712 11.1326 10.0712 12.2362C10.0712 13.3399 9.31061 14.2333 8.34703 14.2333ZM14.686 14.2333C13.7224 14.2333 12.9618 13.3399 12.9618 12.2362C12.9618 11.1326 13.7224 10.2392 14.686 10.2392C15.6495 10.2392 16.4102 11.1326 16.4102 12.2362C16.4102 13.3399 15.6495 14.2333 14.686 14.2333Z" fill="white"/>
</svg>
