<svg width="14" height="14" viewBox="0 0 14 14" fill="none" xmlns="http://www.w3.org/2000/svg">
<path fill-rule="evenodd" clip-rule="evenodd" d="M6.99266 0C10.8641 0 14 3.13628 14 7C14 10.8637 10.8641 14 6.99266 14C3.12915 14 0 10.8643 0 7C0 3.13571 3.12915 2.4033e-05 6.99266 0ZM5.60676 9.62313C5.51357 9.62313 5.42578 9.66722 5.37017 9.742C5.31456 9.81679 5.29757 9.91352 5.3244 10.0028C5.64719 11.0762 6.13514 12.0743 6.75765 12.9743C6.81269 13.0539 6.90326 13.1014 7 13.1014C7.09674 13.1014 7.1873 13.0539 7.24235 12.9743C7.86486 12.0743 8.35281 11.0762 8.6756 10.0028C8.70243 9.91352 8.68544 9.81679 8.62983 9.742C8.57422 9.66722 8.48643 9.62313 8.39324 9.62313H5.60676ZM1.95206 9.62313C1.84672 9.62313 1.74939 9.6794 1.69675 9.77064C1.64413 9.86187 1.64419 9.97421 1.6969 10.0654C2.43257 11.3375 3.60513 12.3109 5.01513 12.7937C5.12995 12.833 5.25721 12.7978 5.33563 12.7052C5.41401 12.6126 5.42758 12.4814 5.36988 12.3746C4.94445 11.5876 4.61741 10.7349 4.38954 9.84476C4.35823 9.72252 4.25298 9.63479 4.12905 9.62428L4.10401 9.62313H1.95206ZM9.89599 9.62313C9.76138 9.62314 9.64386 9.71436 9.61046 9.84476C9.38259 10.7349 9.05555 11.5876 8.63012 12.3746C8.57242 12.4814 8.58599 12.6126 8.66437 12.7052C8.74279 12.7978 8.87005 12.833 8.98487 12.7937C10.3955 12.3107 11.5675 11.3297 12.3027 10.0661C12.3557 9.97493 12.356 9.86236 12.3034 9.77093C12.2508 9.67952 12.1534 9.62313 12.0479 9.62313H9.89599ZM1.3538 5.24626C1.22704 5.24629 1.11551 5.32723 1.07504 5.44544L1.06799 5.46961C0.946593 5.95521 0.869531 6.46822 0.869531 7C0.869531 7.53178 0.946593 8.04479 1.06799 8.53039C1.10079 8.66157 1.21859 8.75371 1.3538 8.75374H3.81949C3.90384 8.75374 3.98417 8.71757 4.04011 8.65444C4.09605 8.59131 4.12222 8.50719 4.11207 8.42346C4.05436 7.94732 4.01205 7.47909 4.01205 7C4.01205 6.52091 4.05436 6.05268 4.11207 5.57654C4.12222 5.49281 4.09605 5.40869 4.04011 5.34556C3.98417 5.28243 3.90384 5.24626 3.81949 5.24626H1.3538ZM5.29303 5.24626C5.15506 5.24626 5.03691 5.34173 5.00606 5.47379L5.00103 5.5007C4.93457 5.98071 4.88158 6.48455 4.88158 7C4.88158 7.51564 4.9347 8.01229 5.00103 8.49872C5.02094 8.64476 5.14564 8.75374 5.29303 8.75374H8.70697C8.85436 8.75374 8.97906 8.64476 8.99897 8.49872C9.0653 8.01229 9.11842 7.51564 9.11842 7C9.11842 6.48455 9.06543 5.98071 8.99897 5.5007C8.98005 5.36405 8.86932 5.26003 8.73431 5.24755L8.70697 5.24626H5.29303ZM10.1805 5.24626C10.0962 5.24626 10.0158 5.28243 9.95989 5.34556C9.90395 5.40869 9.87778 5.49281 9.88793 5.57654C9.94564 6.05268 9.98795 6.52091 9.98795 7C9.98795 7.47909 9.94564 7.94732 9.88793 8.42346C9.87778 8.50719 9.90395 8.59131 9.95989 8.65444C10.0158 8.71757 10.0962 8.75374 10.1805 8.75374H12.6462C12.7814 8.75371 12.8992 8.66157 12.932 8.53039C13.0534 8.04479 13.1305 7.53178 13.1305 7C13.1305 6.46822 13.0534 5.95521 12.932 5.46961C12.9013 5.3466 12.7958 5.25799 12.6712 5.24741L12.6462 5.24626H10.1805ZM5.33563 1.2948C5.25721 1.20218 5.12995 1.16698 5.01513 1.20629C3.60513 1.68907 2.43257 2.66253 1.6969 3.93462C1.64419 4.02579 1.64413 4.13813 1.69675 4.22936C1.74939 4.3206 1.84672 4.37687 1.95206 4.37687H4.10401C4.23861 4.37686 4.35614 4.28564 4.38954 4.15524C4.61741 3.26512 4.94445 2.41243 5.36988 1.62537C5.42758 1.51863 5.41401 1.38742 5.33563 1.2948ZM7 0.898602C6.91531 0.898602 6.83535 0.935039 6.77981 0.997471L6.75765 1.02568C6.13514 1.9257 5.64719 2.92377 5.3244 3.99722C5.29757 4.08648 5.31456 4.18321 5.37017 4.258C5.42578 4.33278 5.51357 4.37687 5.60676 4.37687H8.39324C8.48643 4.37687 8.57422 4.33278 8.62983 4.258C8.68544 4.18321 8.70243 4.08648 8.6756 3.99722C8.35281 2.92377 7.86486 1.9257 7.24235 1.02568C7.1873 0.946132 7.09674 0.898602 7 0.898602ZM8.98487 1.20629C8.87005 1.16698 8.74279 1.20218 8.66437 1.2948C8.58599 1.38742 8.57242 1.51863 8.63012 1.62537C9.05555 2.41243 9.38259 3.26512 9.61046 4.15524C9.64386 4.28564 9.76139 4.37686 9.89599 4.37687H12.0479C12.1534 4.37687 12.2508 4.32048 12.3034 4.22907C12.356 4.13764 12.3557 4.02507 12.3027 3.9339C11.5675 2.67027 10.3955 1.6893 8.98487 1.20629Z" fill="#8FB9B8"/>
</svg>
