<svg width="24" height="24" viewBox="0 0 24 24" fill="none" xmlns="http://www.w3.org/2000/svg">
<path d="M12 21C9.69999 21 7.69584 20.2375 5.9875 18.7125C4.27917 17.1874 3.3 15.2833 3.05001 13H5.1C5.33333 14.7333 6.10416 16.1667 7.4125 17.3001C8.72083 18.4334 10.25 18.9999 12 18.9999C13.95 18.9999 15.6042 18.3209 16.9625 16.9625C18.3209 15.6042 18.9999 13.95 18.9999 12C18.9999 10.05 18.3209 8.39583 16.9625 7.0375C15.6042 5.67917 13.95 5.00001 12 5.00001C10.85 5.00001 9.77499 5.26666 8.775 5.79999C7.77501 6.33333 6.93333 7.06666 6.24999 8.00001H9V9.99999H3V3.99999H5.00001V6.35001C5.85 5.28333 6.8875 4.45833 8.1125 3.87501C9.33751 3.29167 10.6333 3 12 3C13.25 3 14.4208 3.2375 15.5125 3.71251C16.6042 4.1875 17.5541 4.82916 18.3626 5.6375C19.1709 6.44583 19.8125 7.39584 20.2875 8.4875C20.7626 9.57917 21 10.75 21 12C21 13.25 20.7626 14.4208 20.2875 15.5125C19.8125 16.6042 19.1709 17.5541 18.3626 18.3626C17.5541 19.1709 16.6042 19.8125 15.5125 20.2875C14.4208 20.7626 13.25 21 12 21ZM14.8 16.2L11 12.4V6.99999H13V11.6L16.2 14.8L14.8 16.2Z" fill="#CAF0E5"/>
</svg>
