<svg width="24" height="24" viewBox="0 0 24 24" fill="none" xmlns="http://www.w3.org/2000/svg">
<path fill-rule="evenodd" clip-rule="evenodd" d="M19.3548 8.51613C21.2789 8.51613 22.8387 10.0759 22.8387 12V20.5161C22.8387 22.4402 21.2789 24 19.3548 24H4.64516C2.72107 24 1.16129 22.4402 1.16129 20.5161V12C1.16129 10.0759 2.72107 8.51613 4.64516 8.51613V7.35484C4.64516 3.29287 7.93803 0 12 0C16.062 0 19.3548 3.29287 19.3548 7.35484V8.51613ZM16.2581 7.35484C16.2581 5.00317 14.3517 3.09677 12 3.09677C9.64833 3.09677 7.74193 5.00317 7.74193 7.35484V8.51613H16.2581V7.35484ZM12 12.5806C10.5035 12.5806 9.29032 13.7938 9.29032 15.2903C9.29032 16.4458 10.0137 17.4322 11.0323 17.8218V19.7419C11.0323 20.2764 11.4655 20.7097 12 20.7097C12.5345 20.7097 12.9677 20.2764 12.9677 19.7419V17.8218C13.9863 17.4322 14.7097 16.4458 14.7097 15.2903C14.7097 13.7938 13.4965 12.5806 12 12.5806Z" fill="#D9D9D9"/>
</svg>
