<svg width="24" height="24" viewBox="0 0 24 24" fill="none" xmlns="http://www.w3.org/2000/svg">
<path d="M20.3333 10.4301C21.2538 10.4301 22 11.1916 22 12.1308C22 17.7662 17.5228 22.3346 12 22.3346C10.2034 22.3346 8.5149 21.8494 7.05615 21.0015L7.23437 21.9917C7.40063 22.9154 6.80133 23.802 5.89608 23.9718C4.99087 24.1413 4.12232 23.5298 3.95597 22.6062L3.12305 17.9817C2.90663 16.7799 3.65728 15.6053 4.82227 15.3224L9.30469 14.2338C10.2001 14.0163 11.0991 14.5807 11.3123 15.4943C11.5254 16.4079 10.9723 17.3249 10.077 17.5425L8.50553 17.924C9.52127 18.5637 10.7165 18.9334 12 18.9334C15.6819 18.9334 18.6667 15.8877 18.6667 12.1308C18.6667 11.1916 19.4129 10.4301 20.3333 10.4301Z" fill="#D9D9D9"/>
<path d="M17.8476 0.0282489C18.7528 -0.141344 19.6217 0.470139 19.7881 1.39383L20.6206 6.01828C20.837 7.22009 20.0864 8.3947 18.9214 8.67761L14.439 9.76625C13.5436 9.98369 12.6445 9.41933 12.4313 8.50572C12.2183 7.5921 12.7714 6.6751 13.6667 6.45756L15.103 6.10838C14.1768 5.61015 13.122 5.32822 12 5.32822C8.3181 5.32822 5.33333 8.37384 5.33333 12.1308C5.33333 13.07 4.58714 13.8314 3.66667 13.8314C2.74619 13.8314 2 13.07 2 12.1308C2 6.49536 6.47715 1.92694 12 1.92694C13.7016 1.92694 15.3064 2.36176 16.7107 3.1281L16.5093 2.00832C16.343 1.08461 16.9423 0.197987 17.8476 0.0282489Z" fill="#D9D9D9"/>
</svg>
