<svg width="14" height="14" viewBox="0 0 14 14" fill="none" xmlns="http://www.w3.org/2000/svg">
<path d="M7 14C8.56852 14 9.975 13.5364 11.2194 12.6093C12.4639 11.6827 13.3 10.4741 13.7278 8.98333C13.7926 8.75 13.7698 8.52963 13.6593 8.32222C13.5494 8.11481 13.3778 7.98519 13.1444 7.93333C12.9241 7.88148 12.7263 7.92996 12.551 8.07878C12.3763 8.22811 12.2565 8.41296 12.1917 8.63333C11.8546 9.77407 11.2031 10.6944 10.2371 11.3944C9.27163 12.0944 8.19259 12.4444 7 12.4444C5.48333 12.4444 4.19689 11.9161 3.14067 10.8593C2.08393 9.80311 1.55556 8.51667 1.55556 7C1.55556 5.48333 2.08393 4.19663 3.14067 3.13989C4.19689 2.08367 5.48333 1.55556 7 1.55556C7.89444 1.55556 8.73056 1.76296 9.50833 2.17778C10.2861 2.59259 10.9407 3.16296 11.4722 3.88889H10.1111C9.89074 3.88889 9.70589 3.9633 9.55656 4.11211C9.40774 4.26144 9.33333 4.4463 9.33333 4.66667C9.33333 4.88704 9.40774 5.07163 9.55656 5.22044C9.70589 5.36978 9.89074 5.44444 10.1111 5.44444H13.2222C13.4426 5.44444 13.6272 5.36978 13.776 5.22044C13.9253 5.07163 14 4.88704 14 4.66667V1.55556C14 1.33519 13.9253 1.15033 13.776 1.001C13.6272 0.852185 13.4426 0.777778 13.2222 0.777778C13.0019 0.777778 12.817 0.852185 12.6677 1.001C12.5189 1.15033 12.4444 1.33519 12.4444 1.55556V2.60556C11.7833 1.77593 10.9763 1.13426 10.0232 0.680556C9.0707 0.226852 8.06296 0 7 0C6.02778 0 5.117 0.184593 4.26767 0.553778C3.41885 0.923481 2.67996 1.42256 2.051 2.051C1.42255 2.67996 0.923481 3.41885 0.553778 4.26767C0.184592 5.117 0 6.02778 0 7C0 7.97222 0.184592 8.88274 0.553778 9.73156C0.923481 10.5809 1.42255 11.3198 2.051 11.9482C2.67996 12.5772 3.41885 13.0765 4.26767 13.4462C5.117 13.8154 6.02778 14 7 14Z" fill="#273A3A"/>
</svg>
