<svg width="79" height="78" viewBox="0 0 79 78" fill="none" xmlns="http://www.w3.org/2000/svg">
<rect width="77.3028" height="11.6993" rx="5.84964" transform="matrix(0.631524 -0.775356 0.746798 0.665051 16.5862 67.1553)" fill="#D9D9D9"/>
<path d="M62.0551 21.1409C67.4662 24.9732 72.1329 29.2431 75.183 32.2463C78.9982 36.0029 78.9229 42.0479 75.0746 45.7288C71.57 49.0809 65.9873 54.0519 59.7045 58.2092C53.565 62.2717 46.112 65.9993 39.0014 65.9993C35.2355 65.9992 31.3736 64.9536 27.6615 63.3665L37.7592 50.97C38.0271 50.9885 38.2973 50.9993 38.5697 50.9993C45.0807 50.9992 50.3588 45.6266 50.3588 38.9993C50.3588 37.952 50.2256 36.9364 49.9779 35.968L62.0551 21.1409ZM39.0014 11.9993C43.3482 11.9993 47.7328 13.273 51.8588 15.1516L41.8276 27.467C40.7926 27.1647 39.7002 26.9993 38.5697 26.9993C32.0587 26.9993 26.7797 32.3719 26.7797 38.9993C26.7797 40.9407 27.2352 42.7732 28.0395 44.3958L17.3237 57.553C11.4406 53.538 6.2503 48.9063 2.92815 45.7288C-0.91976 42.048 -0.995103 36.0028 2.81975 32.2463C6.24351 28.8752 11.7026 23.9055 17.9672 19.7532C24.1169 15.6771 31.6142 11.9994 39.0014 11.9993Z" fill="#D9D9D9"/>
</svg>
